<svg width="60" height="20" viewBox="0 0 60 20" fill="none" xmlns="http://www.w3.org/2000/svg">
<path d="M44.2784 2.33844L43.1175 4.89769H45.4457L44.2784 2.33844ZM30.882 3.92436C31.1008 3.8205 31.2297 3.59458 31.2297 3.31404C31.2297 3.03912 31.0943 2.84001 30.8755 2.74645C30.6762 2.64273 30.3696 2.63075 30.0756 2.63075H27.9986V4.05671H30.0477C30.3759 4.05678 30.6501 4.0524 30.882 3.92436ZM4.26832 2.33844L3.12053 4.89769H5.42304L4.26832 2.33844ZM57.7079 18.7337H54.4506V17.3568H57.6948C58.0164 17.3568 58.2416 17.3184 58.3773 17.1977C58.5055 17.0901 58.578 16.938 58.5767 16.779C58.5767 16.5919 58.495 16.4433 58.3705 16.3544C58.2483 16.2564 58.07 16.2118 57.7762 16.2118C56.1925 16.1628 54.2166 16.2563 54.2166 14.2243C54.2166 13.293 54.8667 12.3127 56.6368 12.3127H59.9966V11.0351H56.875C55.933 11.0351 55.2485 11.2403 54.764 11.5596V11.0351H50.1468C49.4085 11.0351 48.5419 11.2015 48.132 11.5596V11.0351H39.8865V11.5596C39.2304 11.1289 38.123 11.0351 37.6122 11.0351H32.1735V11.5596C31.6545 11.1022 30.4997 11.0351 29.7963 11.0351H23.7095L22.3169 12.4064L21.0123 11.0351H11.9198V19.9956H20.8408L22.2758 18.6023L23.6277 19.9956L29.1266 20V17.8921H29.6674C30.397 17.9028 31.2575 17.8759 32.0168 17.5773V19.9953H36.5525V17.6598H36.7713C37.0503 17.6598 37.078 17.6705 37.078 17.9243V19.9948H50.8568C51.7316 19.9948 52.6461 19.7913 53.1523 19.4212V19.9948H57.5229C58.4323 19.9948 59.3206 19.8788 59.9964 19.5819V17.9127C59.5868 18.4578 58.7881 18.7341 57.7078 18.7341L57.7079 18.7337ZM29.7396 16.618H27.635V18.7718H24.3566L22.2796 16.6462L20.1213 18.7718H13.4401V12.3505H20.2241L22.2992 14.4554L24.4446 12.3505H29.8343C31.1728 12.3505 32.6768 12.6878 32.6768 14.466C32.6768 16.2498 31.214 16.618 29.7396 16.618ZM39.8599 16.3268C40.0981 16.6402 40.1325 16.9328 40.1394 17.4989V18.7718H38.4458V17.9685C38.4458 17.5822 38.4868 17.0102 38.1732 16.7116C37.9271 16.4817 37.5512 16.4267 36.9356 16.4267H35.1331V18.7718H33.4384V12.3506H37.3323C38.1866 12.3506 38.8084 12.3852 39.3619 12.6536C39.8943 12.9462 40.2293 13.347 40.2293 14.0795C40.2291 15.1044 39.4778 15.6272 39.0338 15.7879C39.409 15.9139 39.7158 16.1398 39.8599 16.3268ZM46.8273 13.6785H42.8775V14.8459H46.7308V16.1561H42.8775V17.4337L46.8273 17.4394V18.7718H41.1978V12.3505H46.8273V13.6785ZM51.1616 18.7717H47.8765V17.3947H51.1485C51.4685 17.3947 51.6954 17.3562 51.8375 17.2357C51.9534 17.1364 52.0368 16.992 52.0368 16.8171C52.0368 16.6299 51.9465 16.4813 51.831 16.3922C51.7019 16.2943 51.5238 16.25 51.2303 16.25C49.6528 16.2008 47.6774 16.2942 47.6774 14.2624C47.6774 13.3309 48.3207 12.3506 50.089 12.3506H53.4706V13.7171H50.3763C50.0696 13.7171 49.8702 13.7278 49.7007 13.8334C49.5157 13.9374 49.4472 14.0916 49.4472 14.2951C49.4472 14.5373 49.6042 14.7023 49.8162 14.7735C49.9942 14.8298 50.1852 14.8462 50.4726 14.8462L51.3807 14.8688C52.2961 14.8887 52.9248 15.0331 53.3069 15.385C53.6351 15.6942 53.8115 16.0846 53.8115 16.7454C53.8113 18.1268 52.8626 18.7717 51.1616 18.7717ZM38.0798 13.7821C37.876 13.672 37.5752 13.6661 37.275 13.6661H35.198V15.1082H37.2473C37.5754 15.1082 37.8544 15.0976 38.0798 14.9759C38.2984 14.8557 38.4292 14.6342 38.4292 14.3596C38.4292 14.0849 38.2984 13.8861 38.0798 13.7821ZM56.9255 13.666C56.6188 13.666 56.4147 13.6766 56.243 13.782C56.065 13.8861 55.9967 14.0403 55.9967 14.244C55.9967 14.4861 56.1469 14.651 56.3655 14.7224C56.5435 14.7787 56.7344 14.7951 57.0153 14.7951L57.9297 14.8172C58.852 14.8381 59.4681 14.9825 59.8435 15.3344C59.9119 15.3831 59.953 15.4381 60 15.4931V13.6661H56.9257L56.9255 13.666ZM29.798 13.666H27.5988V15.3014H29.7785C30.4265 15.3014 30.8295 15.0088 30.8298 14.4534C30.8295 13.8918 30.407 13.666 29.798 13.666ZM15.12 13.666V14.8335H18.8229V16.1436H15.12V17.4211H19.267L21.1937 15.5373L19.3488 13.666H15.12ZM25.9487 18.1564V13.0084L23.3591 15.541L25.9487 18.1564ZM15.2616 7.84682V8.95323H29.3534L29.3469 6.61259H29.6196C29.8106 6.61866 29.8661 6.63465 29.8661 6.92148V8.9533H37.1546V8.40835C37.7424 8.69496 38.6567 8.9533 39.8599 8.9533H42.9261L43.5823 7.52742H45.0372L45.6789 8.9533H51.5876V7.59885L52.4821 8.95323H57.2172V0H52.5314V1.0574L51.8752 0H47.0669V1.0574L46.4643 0H39.9693C38.8819 0 37.9265 0.138045 37.1545 0.522819V0H32.6722V0.522819C32.1809 0.126213 31.5115 0 30.7674 0H14.3925L13.2938 2.31259L12.1655 0H7.00792V1.0574L6.44122 0H2.04266L7.69248e-05 4.25706V7.66225L3.02045 1.24248H5.52658L8.39511 7.32064V1.24248H11.1482L13.3555 5.59748L15.3834 1.24248H18.1917V7.66225H16.4628L16.4565 2.6344L14.0106 7.66225H12.5297L10.0775 2.62995V7.66225H6.64668L5.99859 6.2303H2.48667L1.83189 7.66225H0V8.95374H2.88206L3.53185 7.52778H4.9868L5.63489 8.95374H11.3052V7.86347L11.8113 8.95827H14.7549L15.2611 7.84704L15.2616 7.84682ZM37.4674 1.99078C38.0124 1.4784 38.8665 1.24212 40.0289 1.24212H41.6618V2.61768H40.0631C39.4479 2.61768 39.0999 2.70094 38.7653 2.99807C38.4776 3.26832 38.2804 3.7793 38.2804 4.45215C38.2804 5.13996 38.4308 5.63583 38.7441 5.95976C39.0038 6.2138 39.4759 6.29085 39.9197 6.29085H40.6775L43.0546 1.24233H45.5818L48.4376 7.31443V1.24241H51.0058L53.9707 5.7134V1.24241H55.6984V7.66196H53.3082L50.1111 2.84366V7.66196H46.6759L46.0196 6.23001H42.5157L41.8789 7.66196H39.905C39.0852 7.66196 38.0472 7.49703 37.4594 6.95186C36.8665 6.40684 36.5583 5.66848 36.5583 4.50116C36.558 3.54893 36.7421 2.67859 37.4674 1.99078ZM33.998 1.24219H35.719V7.66196H33.998V1.24219ZM26.2386 1.24219H30.1181C30.9799 1.24219 31.6154 1.26301 32.1607 1.54969C32.6943 1.83644 33.0142 2.25511 33.0142 2.97104C33.0142 3.9947 32.2632 4.52343 31.8258 4.68229C32.1948 4.81011 32.5102 5.03588 32.6604 5.22286C32.8986 5.54219 32.9396 5.82741 32.9396 6.4007V7.66188H31.2384L31.232 6.85231C31.232 6.46593 31.2726 5.91039 30.9658 5.60172C30.7194 5.37603 30.3436 5.32687 29.7363 5.32687H27.9256V7.66196H26.2389L26.2386 1.24219ZM19.439 1.24219H25.0737V2.57904H21.1259V3.73621H24.9789V5.05217H21.1259V6.33424H25.0737V7.66188H19.439V1.24219Z" fill="#2557D6"/>
</svg>
