<svg width="50" height="22" viewBox="0 0 50 22" fill="none" xmlns="http://www.w3.org/2000/svg">
<path d="M41.513 21.4101C43.8175 21.4101 44.9021 20.5308 45.8495 17.8654L50 6.22418H47.5969L44.8137 15.2306H44.7649L41.9816 6.23637H39.5105L43.5146 17.3165L43.3001 17.9905C43.1486 18.9551 42.2825 19.6433 41.3077 19.5722C41.1217 19.5722 40.7608 19.5529 40.6144 19.5335V21.3633C40.9123 21.404 41.2132 21.4233 41.513 21.4222V21.4101ZM33.5048 15.5803C32.2443 15.5803 31.4443 14.9704 31.4443 14.0474C31.4443 13.0908 32.2159 12.5337 33.6909 12.4453L36.3176 12.2796V13.1396C36.2596 14.5566 35.0632 15.6596 33.6461 15.6016C33.5984 15.5996 33.5516 15.5955 33.5048 15.5915V15.5803ZM32.8705 17.3866C34.3008 17.4253 35.6385 16.6802 36.3572 15.443H36.406V17.2728H38.5936V9.69459C38.5936 7.49686 36.836 6.08085 34.13 6.08085C31.6202 6.08085 29.764 7.51618 29.6959 9.48925H31.8255C32.0797 8.48594 33.0332 7.82419 34.0619 7.936C35.5074 7.936 36.3176 8.60996 36.3176 9.85012V10.6898L33.3696 10.8656C30.625 11.0313 29.1409 12.1546 29.1409 14.1083C29.1389 16.0896 30.6718 17.3978 32.8695 17.3978L32.8705 17.3866ZM20.1934 4.03661H22.9177C24.9691 4.03661 26.1411 5.13039 26.1411 7.05468C26.1411 8.97896 24.9691 10.0819 22.9086 10.0819H20.1934V4.03661ZM17.83 2.04422V17.2697H20.1934V12.0794H23.4656C26.131 12.2227 28.407 10.1785 28.5503 7.51313C28.5584 7.36167 28.5594 7.21122 28.5533 7.05976C28.6794 4.42391 26.6453 2.18552 24.0095 2.05845C23.8539 2.05134 23.6994 2.05235 23.5439 2.05947L17.83 2.04422ZM9.98547 4.88541C8.62739 4.80714 7.4655 5.65695 6.82103 5.65695C6.17655 5.65695 5.18035 4.92506 4.10588 4.94539C2.68275 4.98198 1.38566 5.76979 0.697472 7.01605C-0.767342 9.53602 0.316277 13.2667 1.7323 15.317C2.42557 16.3335 3.25709 17.4466 4.34985 17.407C5.38468 17.3683 5.79535 16.733 7.04568 16.733C8.296 16.733 8.66704 17.407 9.76082 17.3866C10.8932 17.3673 11.6068 16.3701 12.3021 15.3536C12.7921 14.6339 13.1733 13.8461 13.4345 13.0156C12.0998 12.4321 11.2348 11.1177 11.2277 9.66105C11.248 8.37616 11.9209 7.19089 13.0147 6.51693C12.3174 5.52684 11.1982 4.91896 9.9875 4.87626L9.98547 4.88541ZM9.13769 3.54055C8.54302 4.28973 7.63323 4.71972 6.67668 4.70244C6.61569 3.76927 6.93285 2.85134 7.55598 2.15401C8.17606 1.43431 9.05027 0.982969 9.99564 0.894531C10.0627 1.85413 9.75472 2.80153 9.13566 3.5375" fill="black"/>
</svg>
