<svg width="50" height="21" viewBox="0 0 50 21" fill="none" xmlns="http://www.w3.org/2000/svg">
<path d="M23.6471 10.3442V16.1239H21.8008V1.85057H26.6976C27.2821 1.83844 27.8633 1.94139 28.4075 2.15348C28.9517 2.36556 29.4483 2.68258 29.8685 3.08623C30.293 3.46538 30.6308 3.93037 30.8592 4.44994C31.0877 4.96951 31.2015 5.53163 31.1931 6.09852C31.2052 6.66844 31.0931 7.23423 30.8645 7.75711C30.6359 8.27999 30.2961 8.7476 29.8685 9.12789C29.0122 9.93876 27.9553 10.3438 26.6976 10.3431H23.6471V10.3442ZM23.6471 3.60783V8.59035H26.7435C27.0829 8.60034 27.4207 8.53986 27.7353 8.41279C28.0499 8.28571 28.3343 8.09483 28.5703 7.85236C28.8051 7.62566 28.9918 7.3545 29.1192 7.05492C29.2467 6.75534 29.3123 6.43342 29.3123 6.1082C29.3123 5.78298 29.2467 5.46106 29.1192 5.16148C28.9918 4.8619 28.8051 4.59074 28.5703 4.36403C28.3372 4.11645 28.0538 3.9209 27.7389 3.79033C27.4239 3.65977 27.0846 3.59717 26.7435 3.60669H23.6471V3.60783Z" fill="#5F6368"/>
<path d="M35.4466 6.03906C36.8113 6.03906 37.8885 6.40122 38.6783 7.12554C39.4681 7.84985 39.8626 8.84294 39.8618 10.1048V16.1237H38.0957V14.7684H38.0155C37.2509 15.8845 36.2341 16.4426 34.965 16.4426C33.8816 16.4426 32.9753 16.1237 32.2459 15.4859C31.8959 15.1932 31.616 14.8266 31.4268 14.4129C31.2375 13.9991 31.1436 13.5487 31.1519 13.0943C31.1519 12.0838 31.5364 11.2801 32.3055 10.6833C33.0747 10.0866 34.1014 9.78743 35.3858 9.78591C36.4822 9.78591 37.3851 9.98521 38.0946 10.3838V9.96472C38.0967 9.65496 38.0293 9.34863 37.8974 9.06794C37.7655 8.78724 37.5724 8.53921 37.332 8.34184C36.8437 7.90438 36.2074 7.66568 35.5498 7.67333C34.5185 7.67333 33.7023 8.10534 33.1014 8.96935L31.4753 7.95235C32.3698 6.67682 33.6936 6.03906 35.4466 6.03906ZM33.0578 13.1342C33.0566 13.3675 33.1115 13.5978 33.2181 13.8058C33.3246 14.0138 33.4796 14.1935 33.6702 14.33C34.0786 14.649 34.5854 14.8179 35.1049 14.8083C35.884 14.807 36.6308 14.499 37.1817 13.9519C37.7934 13.3802 38.0992 12.7094 38.0992 11.9395C37.5235 11.484 36.7207 11.2562 35.6909 11.2562C34.9409 11.2562 34.3155 11.4357 33.8147 11.7949C33.309 12.1593 33.0578 12.6023 33.0578 13.1342Z" fill="#5F6368"/>
<path d="M50.0003 6.35742L43.8351 20.428H41.9292L44.217 15.5047L40.1631 6.35742H42.17L45.1 13.3728H45.1402L47.99 6.35742H50.0003Z" fill="#5F6368"/>
<path d="M16.1858 9.09893C16.1865 8.54015 16.1389 7.98234 16.0436 7.43164H8.25684V10.5897H12.7167C12.6255 11.0941 12.4323 11.5749 12.1489 12.0032C11.8655 12.4314 11.4977 12.7982 11.0676 13.0815V15.1315H13.7293C15.2878 13.7045 16.1858 11.5942 16.1858 9.09893Z" fill="#4285F4"/>
<path d="M8.25723 17.1109C10.4855 17.1109 12.3616 16.3843 13.7297 15.1316L11.068 13.0816C10.3272 13.5804 9.37306 13.8652 8.25723 13.8652C6.10354 13.8652 4.27555 12.4234 3.62188 10.4805H0.879883V12.5931C1.56712 13.9511 2.62092 15.0928 3.92364 15.8906C5.22636 16.6883 6.72673 17.1108 8.25723 17.1109Z" fill="#34A853"/>
<path d="M3.62121 10.4798C3.27564 9.46171 3.27564 8.35919 3.62121 7.3411V5.22852H0.879217C0.301089 6.37097 0 7.63185 0 8.91045C0 10.1891 0.301089 11.4499 0.879217 12.5924L3.62121 10.4798Z" fill="#FBBC04"/>
<path d="M8.25723 3.95723C9.43475 3.93812 10.5725 4.37995 11.4247 5.1872L13.7814 2.84684C12.287 1.45296 10.3073 0.687697 8.25723 0.711475C6.72673 0.711545 5.22636 1.13406 3.92364 1.93184C2.62092 2.72962 1.56712 3.87127 0.879883 5.22934L3.62187 7.34192C4.27555 5.39903 6.10354 3.95723 8.25723 3.95723Z" fill="#EA4335"/>
</svg>
