<svg width="50" height="32" viewBox="0 0 50 32" fill="none" xmlns="http://www.w3.org/2000/svg">
<path d="M31.2599 4.15873L18.3486 4.20312L18.7399 27.8404L31.6512 27.796L31.2599 4.15873Z" fill="#FF5F00"/>
<path d="M19.198 16.0692C19.1181 11.2616 21.2718 6.98982 24.6451 4.21895C22.0989 2.22089 18.9067 1.01939 15.4464 1.03124C7.24859 1.05932 0.728062 7.81272 0.866312 16.132C1.00456 24.4513 7.74879 31.1593 15.9466 31.1312C19.4069 31.1194 22.5588 29.8961 25.0383 27.8809C21.574 25.1752 19.2779 20.8769 19.198 16.0692Z" fill="#EB001B"/>
<path d="M49.1328 15.8683C49.271 24.1876 42.7505 30.941 34.5527 30.969C31.0923 30.9809 27.9002 29.7794 25.3539 27.7813C28.7685 25.0103 30.8809 20.7387 30.801 15.931C30.7211 11.1234 28.4257 6.86687 24.9607 4.11942C27.4403 2.10415 30.5921 0.88092 34.0525 0.869069C42.2503 0.840992 48.9952 7.59077 49.1328 15.8683Z" fill="#F79E1B"/>
</svg>
