<svg width="26" height="30" viewBox="0 0 26 30" fill="none" xmlns="http://www.w3.org/2000/svg">
<path d="M23.3195 7.54102C23.3195 7.70144 23.3195 7.86188 23.1591 8.0223C21.8757 14.4394 17.7046 16.525 12.25 16.525H9.52273C8.88102 16.525 8.23933 17.0063 8.23933 17.648L6.79546 26.6319L6.47461 29.1988C6.47461 29.6801 6.79546 30.0009 7.11631 30.0009H12.0896C12.7313 30.0009 13.2126 29.5196 13.2126 29.0383V28.7175L14.1752 22.9421V22.6212C14.3356 21.9795 14.8169 21.6587 15.2981 21.6587H16.1003C20.9131 21.6587 24.6029 19.7335 25.5655 14.1186C26.0468 11.7121 25.726 9.78701 24.603 8.50359C24.2821 8.18273 23.8008 7.86187 23.3195 7.54102Z" fill="#2199D6"/>
<path d="M22.036 7.05941C21.8756 7.05941 21.7152 6.89898 21.3943 6.89898C21.2339 6.89898 20.913 6.73855 20.7526 6.73855C19.9505 6.57812 19.1483 6.57812 18.3462 6.57812H10.9665C10.8061 6.57812 10.6457 6.57812 10.4852 6.73855C10.1644 6.89898 9.84354 7.21983 9.84354 7.54069L8.23926 17.4872V17.8081C8.39969 17.1664 8.88095 16.6851 9.52266 16.6851H12.25C17.7045 16.6851 21.8756 14.4391 23.159 8.1824C23.159 8.02198 23.159 7.86155 23.3195 7.70112C22.9986 7.54069 22.6777 7.38027 22.3569 7.21984C22.1965 7.05941 22.036 7.05941 22.036 7.05941Z" fill="#252C5E"/>
<path d="M9.84344 7.5401C9.84344 7.21925 10.1643 6.89839 10.4851 6.73796C10.6456 6.73796 10.806 6.57754 10.9664 6.57754H18.3461C19.1482 6.57754 20.1108 6.57754 20.7525 6.73796C20.9129 6.73796 21.2338 6.73797 21.3942 6.8984C21.5547 6.8984 21.7151 7.05882 22.0359 7.05882C22.1964 7.05882 22.1964 7.05882 22.3568 7.21925C22.6777 7.37968 22.9985 7.54011 23.3194 7.70053C23.6402 5.29412 23.3194 3.68984 22.0359 2.24599C20.5921 0.641708 18.0252 0 14.8167 0H5.35146C4.70975 0 4.06803 0.481279 4.06803 1.12299L0.217773 25.8289C0.217773 26.3102 0.538629 26.7914 1.01991 26.7914H6.7953L8.23917 17.4866L9.84344 7.5401Z" fill="#263577"/>
</svg>
