<svg width="71" height="132" viewBox="0 0 71 132" fill="none" xmlns="http://www.w3.org/2000/svg">
<path d="M0.5 12V120C0.5 126.627 5.87258 132 12.5 132H35.5V0H12.5C5.87258 0 0.5 5.37258 0.5 12Z" fill="#0B0B0D"/>
<path d="M6.5 18V41C6.5 45.4183 10.0817 49 14.5 49H35.5V10H14.5C10.0817 10 6.5 13.5817 6.5 18Z" fill="#232325"/>
<path d="M6.5 61V68.6667C6.5 71.9804 9.18629 74.6667 12.5 74.6667H35.5V55H12.5C9.18629 55 6.5 57.6863 6.5 61Z" fill="#232325"/>
<path d="M6.5 85V92.6667C6.5 95.9804 9.18629 98.6667 12.5 98.6667H35.5V79H12.5C9.18629 79 6.5 81.6863 6.5 85Z" fill="#232325"/>
<path d="M6.5 108.334V116.001C6.5 119.314 9.18629 122.001 12.5 122.001H35.5V102.334H12.5C9.18629 102.334 6.5 105.02 6.5 108.334Z" fill="#232325"/>
<path d="M70.5 120V12C70.5 5.37258 65.1274 0 58.5 0H35.5V132H58.5C65.1274 132 70.5 126.627 70.5 120Z" fill="#F2F2F2"/>
<path d="M64.5 61V68.6667C64.5 71.9804 61.8137 74.6667 58.5 74.6667H35.5V55H58.5C61.8137 55 64.5 57.6863 64.5 61Z" fill="white"/>
<path d="M64.5 85V92.6667C64.5 95.9804 61.8137 98.6667 58.5 98.6667H35.5V79H58.5C61.8137 79 64.5 81.6863 64.5 85Z" fill="white"/>
<path d="M64.5 108.334V116.001C64.5 119.314 61.8137 122.001 58.5 122.001H35.5V102.334H58.5C61.8137 102.334 64.5 105.02 64.5 108.334Z" fill="white"/>
<path d="M64.5 18V41C64.5 45.4183 60.9183 49 56.5 49H35.5V10H56.5C60.9183 10 64.5 13.5817 64.5 18Z" fill="white"/>
</svg>
