<svg width="50" height="16" viewBox="0 0 50 16" fill="none" xmlns="http://www.w3.org/2000/svg">
<path d="M46.6372 0.542969H43.4939C42.5436 0.542969 41.8126 0.835366 41.374 1.78566L35.3799 15.4552H39.6196C39.6196 15.4552 40.3506 13.6278 40.4968 13.1892C40.9354 13.1892 45.1021 13.1892 45.6869 13.1892C45.8331 13.7009 46.1986 15.3822 46.1986 15.3822H49.9998L46.6372 0.542969ZM41.6664 10.119C42.0319 9.2418 43.2746 5.95233 43.2746 5.95233C43.2746 6.02542 43.6401 5.07513 43.7863 4.56344L44.0787 5.87923C44.0787 5.87923 44.8828 9.4611 45.029 10.1921H41.6664V10.119Z" fill="#3362AB"/>
<path d="M35.6726 10.5581C35.6726 13.6283 32.8948 15.6751 28.582 15.6751C26.7545 15.6751 25.0001 15.3096 24.0498 14.871L24.6346 11.5084L25.1463 11.7277C26.4621 12.3125 27.3393 12.5318 28.9475 12.5318C30.1171 12.5318 31.3597 12.0932 31.3597 11.0698C31.3597 10.4119 30.848 9.97334 29.2399 9.24235C27.7048 8.51135 25.658 7.34176 25.658 5.22188C25.658 2.2979 28.5089 0.324219 32.5293 0.324219C34.0644 0.324219 35.3802 0.616616 36.1843 0.982113L35.5995 4.19849L35.3071 3.90609C34.5761 3.61369 33.6258 3.32129 32.2369 3.32129C30.7018 3.39439 29.9709 4.05229 29.9709 4.63708C29.9709 5.29498 30.848 5.80667 32.2369 6.46457C34.5761 7.56106 35.6726 8.80375 35.6726 10.5581Z" fill="#3362AB"/>
<path d="M0 0.688882L0.0730994 0.396484H6.35965C7.23684 0.396484 7.89474 0.688882 8.11404 1.63917L9.50292 8.21812C8.11404 4.70935 4.89766 1.85847 0 0.688882Z" fill="#F9B50B"/>
<path d="M18.348 0.543803L11.9883 15.383H7.67548L4.02051 2.95608C6.65209 4.63737 8.84507 7.26895 9.64916 9.09643L10.0878 10.6315L14.0351 0.470703H18.348V0.543803Z" fill="#3362AB"/>
<path d="M20.0292 0.470703H24.0497L21.4912 15.383H17.4707L20.0292 0.470703Z" fill="#3362AB"/>
</svg>
